<?xml version="1.0" encoding="utf-8"?>
<!-- Generator: Adobe Illustrator 22.1.0, SVG Export Plug-In . SVG Version: 6.00 Build 0)  -->
<svg version="1.1" id="Layer_1" xmlns="http://www.w3.org/2000/svg" xmlns:xlink="http://www.w3.org/1999/xlink" x="0px" y="0px"
	 viewBox="0 0 100 100" style="enable-background:new 0 0 100 100;" xml:space="preserve">
<style type="text/css">
	.st0{display:none;}
	.st1{display:inline;}
	.st2{fill:#414142;}
</style>
<g class="st0">
	<g class="st1">
		<path class="st2" d="M29,15c-7.7,0-14,6.3-14,14s6.3,14,14,14s14-6.3,14-14S36.7,15,29,15z M27.8,22h-2.3c-0.7,0-1.2,0.5-1.2,1.2
			v3.7c0,0.8-0.2,1.5-0.7,2.1c0.5,0.6,0.7,1.4,0.7,2.1v3.7c0,0.7,0.5,1.2,1.2,1.2h2.3v2.3h-2.3c-2,0-3.5-1.5-3.5-3.5v-3.7
			c0-0.2,0-0.9-0.5-0.9s-1.9,0-1.9,0v-2.3c0,0,1.4,0,1.9,0s0.5-0.7,0.5-0.9v-3.7c0-2,1.5-3.5,3.5-3.5h2.3V22z M38.3,30.2
			c0,0-1.4,0-1.9,0S36,30.9,36,31.1v3.7c0,2-1.5,3.5-3.5,3.5h-2.3V36h2.3c0.7,0,1.2-0.5,1.2-1.2v-3.7c0-0.8,0.2-1.5,0.7-2.1
			c-0.5-0.6-0.7-1.4-0.7-2.1v-3.7c0-0.7-0.5-1.2-1.2-1.2h-2.3v-2.3h2.3c2,0,3.5,1.5,3.5,3.5v3.7c0,0.4,0,0.9,0.5,0.9s1.9,0,1.9,0
			V30.2z"/>
		<path class="st2" d="M71,57c-7.7,0-14,6.3-14,14s6.3,14,14,14s14-6.3,14-14S78.7,57,71,57z M67.3,77.3l-2,1.3l-5-7.6l5.1-7.7
			l2,1.3L63.1,71L67.3,77.3z M71,78.2l-2.3-0.4l2.3-14l2.3,0.4L71,78.2z M76.6,78.7l-2-1.3l4.2-6.3l-4.2-6.3l2-1.3l5.1,7.7
			L76.6,78.7z"/>
		<path class="st2" d="M54.7,71c0-9,7.3-16.3,16.3-16.3c1.5,0,2.9,0.2,4.2,0.6l4-0.8v-8.9L71.3,44c-0.5-1.6-1.2-3.3-2-4.8l4.4-6.7
			l-6.3-6.4l-6.7,4.4c-1.5-0.8-3.2-1.5-4.8-2l-1.6-7.8h-8.9l-0.8,4c0.4,1.4,0.6,2.8,0.6,4.2c0,9-7.4,16.3-16.3,16.3
			c-1.5,0-2.9-0.2-4.2-0.6l-4,0.8v8.9l7.8,1.5c0.5,1.6,1.2,3.3,2,4.8l-4.4,6.8l6.3,6.3l6.7-4.4c1.5,0.8,3.2,1.5,4.8,2l1.5,7.8h8.9
			l0.8-4C54.9,73.9,54.7,72.5,54.7,71z M50,58.2c-4.5,0-8.2-3.6-8.2-8.2s3.6-8.2,8.2-8.2s8.2,3.6,8.2,8.2S54.6,58.2,50,58.2z"/>
	</g>
	<g class="st1">
		<path class="st2" d="M29,15c-7.7,0-14,6.3-14,14s6.3,14,14,14s14-6.3,14-14S36.7,15,29,15z M27.8,22h-2.3c-0.7,0-1.2,0.5-1.2,1.2
			v3.7c0,0.8-0.2,1.5-0.7,2.1c0.5,0.6,0.7,1.4,0.7,2.1v3.7c0,0.7,0.5,1.2,1.2,1.2h2.3v2.3h-2.3c-2,0-3.5-1.5-3.5-3.5v-3.7
			c0-0.2,0-0.9-0.5-0.9s-1.9,0-1.9,0v-2.3c0,0,1.4,0,1.9,0s0.5-0.7,0.5-0.9v-3.7c0-2,1.5-3.5,3.5-3.5h2.3V22z M38.3,30.2
			c0,0-1.4,0-1.9,0S36,30.9,36,31.1v3.7c0,2-1.5,3.5-3.5,3.5h-2.3V36h2.3c0.7,0,1.2-0.5,1.2-1.2v-3.7c0-0.8,0.2-1.5,0.7-2.1
			c-0.5-0.6-0.7-1.4-0.7-2.1v-3.7c0-0.7-0.5-1.2-1.2-1.2h-2.3v-2.3h2.3c2,0,3.5,1.5,3.5,3.5v3.7c0,0.4,0,0.9,0.5,0.9s1.9,0,1.9,0
			V30.2z"/>
		<path class="st2" d="M71,57c-7.7,0-14,6.3-14,14s6.3,14,14,14s14-6.3,14-14S78.7,57,71,57z M67.3,77.3l-2,1.3l-5-7.6l5.1-7.7
			l2,1.3L63.1,71L67.3,77.3z M71,78.2l-2.3-0.4l2.3-14l2.3,0.4L71,78.2z M76.6,78.7l-2-1.3l4.2-6.3l-4.2-6.3l2-1.3l5.1,7.7
			L76.6,78.7z"/>
		<path class="st2" d="M54.7,71c0-9,7.3-16.3,16.3-16.3c1.5,0,2.9,0.2,4.2,0.6l4-0.8v-8.9L71.3,44c-0.5-1.6-1.2-3.3-2-4.8l4.4-6.7
			l-6.3-6.4l-6.7,4.4c-1.5-0.8-3.2-1.5-4.8-2l-1.6-7.8h-8.9l-0.8,4c0.4,1.4,0.6,2.8,0.6,4.2c0,9-7.4,16.3-16.3,16.3
			c-1.5,0-2.9-0.2-4.2-0.6l-4,0.8v8.9l7.8,1.5c0.5,1.6,1.2,3.3,2,4.8l-4.4,6.8l6.3,6.3l6.7-4.4c1.5,0.8,3.2,1.5,4.8,2l1.5,7.8h8.9
			l0.8-4C54.9,73.9,54.7,72.5,54.7,71z M50,58.2c-4.5,0-8.2-3.6-8.2-8.2s3.6-8.2,8.2-8.2s8.2,3.6,8.2,8.2S54.6,58.2,50,58.2z"/>
	</g>
</g>
<g>
	<g>
		<g>
			<path class="st2" d="M50.1,37.5c-6.9,0-12.4,5.6-12.4,12.4c0,6.9,5.6,12.4,12.4,12.4s12.4-5.6,12.4-12.4
				C62.6,43,57,37.5,50.1,37.5z M50.1,60.9c-6.1,0-11-4.9-11-11s4.9-11,11-11c6.1,0,11,4.9,11,11S56.2,60.9,50.1,60.9z"/>
			<path class="st2" d="M54.3,53.4c0-0.2,0-0.5-0.2-0.7c-0.2-0.2-0.4-0.3-0.6-0.3c-0.3,0-0.5,0-0.6,0.2c-0.8,0.6-1.6,0.8-2.6,0.8
				c-1,0-1.8-0.4-2.6-1.1c-0.7-0.7-1.1-1.6-1.1-2.6c0-1,0.4-1.9,1.1-2.6c0.8-0.7,1.6-1.1,2.6-1.1c0.9,0,1.8,0.3,2.5,0.8
				c0.2,0.2,0.4,0.2,0.7,0.2c0.3,0,0.5-0.1,0.6-0.3c0.2-0.2,0.2-0.4,0.2-0.7c0-0.3-0.1-0.5-0.3-0.6c-0.7-0.5-1.5-0.9-2.3-1.1v-1.6
				c0-0.3-0.3-0.6-0.6-0.6c-0.3,0-0.6,0.3-0.6,0.6v1.5c0,0,0,0,0,0c-0.5,0-0.9,0.1-1.3,0.2v-1.6c0-0.3-0.3-0.6-0.6-0.6
				s-0.6,0.3-0.6,0.6v2.1c-0.5,0.3-1,0.6-1.5,1c-1.1,1.1-1.7,2.4-1.7,3.9c0,1.5,0.6,2.8,1.7,3.9c0.4,0.4,0.9,0.8,1.5,1v2
				c0,0.3,0.3,0.6,0.6,0.6s0.6-0.3,0.6-0.6v-1.6c0.4,0.1,0.9,0.2,1.3,0.2c0,0,0,0,0,0v1.4c0,0.3,0.3,0.6,0.6,0.6
				c0.3,0,0.6-0.3,0.6-0.6v-1.5c0.8-0.2,1.6-0.5,2.3-1C54.2,53.9,54.3,53.7,54.3,53.4z"/>
		</g>
		<g>
			<path class="st2" d="M50.1,37.5c-6.9,0-12.4,5.6-12.4,12.4c0,6.9,5.6,12.4,12.4,12.4s12.4-5.6,12.4-12.4
				C62.6,43,57,37.5,50.1,37.5z M50.1,60.9c-6.1,0-11-4.9-11-11s4.9-11,11-11c6.1,0,11,4.9,11,11S56.2,60.9,50.1,60.9z"/>
			<path class="st2" d="M54.3,53.4c0-0.2,0-0.5-0.2-0.7c-0.2-0.2-0.4-0.3-0.6-0.3c-0.3,0-0.5,0-0.6,0.2c-0.8,0.6-1.6,0.8-2.6,0.8
				c-1,0-1.8-0.4-2.6-1.1c-0.7-0.7-1.1-1.6-1.1-2.6c0-1,0.4-1.9,1.1-2.6c0.8-0.7,1.6-1.1,2.6-1.1c0.9,0,1.8,0.3,2.5,0.8
				c0.2,0.2,0.4,0.2,0.7,0.2c0.3,0,0.5-0.1,0.6-0.3c0.2-0.2,0.2-0.4,0.2-0.7c0-0.3-0.1-0.5-0.3-0.6c-0.7-0.5-1.5-0.9-2.3-1.1v-1.6
				c0-0.3-0.3-0.6-0.6-0.6c-0.3,0-0.6,0.3-0.6,0.6v1.5c0,0,0,0,0,0c-0.5,0-0.9,0.1-1.3,0.2v-1.6c0-0.3-0.3-0.6-0.6-0.6
				s-0.6,0.3-0.6,0.6v2.1c-0.5,0.3-1,0.6-1.5,1c-1.1,1.1-1.7,2.4-1.7,3.9c0,1.5,0.6,2.8,1.7,3.9c0.4,0.4,0.9,0.8,1.5,1v2
				c0,0.3,0.3,0.6,0.6,0.6s0.6-0.3,0.6-0.6v-1.6c0.4,0.1,0.9,0.2,1.3,0.2c0,0,0,0,0,0v1.4c0,0.3,0.3,0.6,0.6,0.6
				c0.3,0,0.6-0.3,0.6-0.6v-1.5c0.8-0.2,1.6-0.5,2.3-1C54.2,53.9,54.3,53.7,54.3,53.4z"/>
		</g>
	</g>
	<circle class="st2" cx="61.2" cy="18" r="2.2"/>
	<circle class="st2" cx="64.8" cy="74.2" r="2.2"/>
	<circle class="st2" cx="27.9" cy="35.6" r="2.2"/>
	<circle class="st2" cx="75.5" cy="49.9" r="1.4"/>
	<circle class="st2" cx="39.1" cy="27.2" r="1.8"/>
	<circle class="st2" cx="25.7" cy="18.4" r="1.8"/>
	<circle class="st2" cx="76.9" cy="73.4" r="1.8"/>
	<circle class="st2" cx="24.6" cy="76.9" r="1.4"/>
	<circle class="st2" cx="22.1" cy="55.7" r="1.4"/>
	<circle class="st2" cx="20.8" cy="28" r="1.8"/>
	<path class="st2" d="M64.8,74.6c-0.1,0-0.3-0.1-0.3-0.2c-0.1-0.1-0.1-0.3,0-0.4l10.7-24.1l-14-31.1L45.9,39.1
		c-0.1,0.1-0.3,0.2-0.4,0.2L27.8,36c-0.1,0-0.2-0.1-0.2-0.1l-7.1-7.6c-0.1-0.1-0.1-0.3-0.1-0.5l4.9-9.6l0.7,0.4l-4.8,9.3l6.9,7.3
		l17.2,3.2l15.5-20.7c0.1-0.1,0.2-0.2,0.4-0.2c0.1,0,0.3,0.1,0.3,0.2l14.4,31.9c0,0.1,0,0.2,0,0.3L65.4,73.7L76.9,73l0.1,0.8
		L64.8,74.6C64.8,74.6,64.8,74.6,64.8,74.6z"/>
	
		<rect x="41.8" y="26.4" transform="matrix(0.8812 -0.4728 0.4728 0.8812 -10.6046 23.8876)" class="st2" width="0.8" height="13.2"/>
	
		<rect x="38.3" y="69.8" transform="matrix(0.8812 -0.4727 0.4727 0.8812 -31.5127 27.3842)" class="st2" width="0.8" height="13.2"/>
	
		<rect x="21.9" y="53.5" transform="matrix(0.9731 -0.2306 0.2306 0.9731 -11.6129 8.3683)" class="st2" width="16.2" height="0.8"/>
	<polygon class="st2" points="57,41.3 56.4,40.8 60.8,35.6 61.5,36.1 	"/>
	<polygon class="st2" points="80.7,53.3 75.3,50.3 75.7,49.6 81.1,52.6 	"/>
	<polygon class="st2" points="51.4,80 50.3,61.3 51.1,61.3 52.3,79.9 	"/>
	<rect x="33.2" y="65" transform="matrix(0.6546 -0.7559 0.7559 0.6546 -35.5873 52.9174)" class="st2" width="13.8" height="0.8"/>
	<circle class="st2" cx="35.6" cy="70.6" r="1.8"/>
	<circle class="st2" cx="41.9" cy="82.2" r="1.8"/>
	<circle class="st2" cx="78.3" cy="34.5" r="1.4"/>
	<circle class="st2" cx="80.7" cy="52.9" r="1.4"/>
	<circle class="st2" cx="55.7" cy="74.7" r="1.4"/>
	<circle class="st2" cx="61.1" cy="35.8" r="1.8"/>
	<circle class="st2" cx="82.6" cy="30.2" r="2.2"/>
	<circle class="st2" cx="21.6" cy="71.2" r="2.2"/>
	<circle class="st2" cx="17.2" cy="51.3" r="2.2"/>
	<circle class="st2" cx="51.9" cy="79.9" r="2.2"/>
</g>
</svg>
