<?xml version="1.0" encoding="utf-8"?>
<!-- Generator: Adobe Illustrator 22.1.0, SVG Export Plug-In . SVG Version: 6.00 Build 0)  -->
<svg version="1.1" id="Layer_1" xmlns="http://www.w3.org/2000/svg" xmlns:xlink="http://www.w3.org/1999/xlink" x="0px" y="0px"
	 viewBox="0 0 24 24" style="enable-background:new 0 0 24 24;" xml:space="preserve">
<style type="text/css">
	.st0{fill:#414142;}
</style>
<path class="st0" d="M11.5,11.5V9c1.8,0,2.8,0.3,2.8,1.3C14.3,11.4,12.6,11.5,11.5,11.5z M11.5,12.5V15c2,0,3.3-0.2,3.3-1.3
	C14.8,12.6,13.4,12.5,11.5,12.5z M24,12c0,6.6-5.4,12-12,12S0,18.6,0,12S5.4,0,12,0S24,5.4,24,12z M17,13.6c0-1.3-1-1.8-1.8-2
	c0.6-0.2,1.3-1.1,1-2.2C16,8.4,15.2,7.6,13,7.5V6h-1v1.5h-0.5V6h-1v1.5H8V9h0.8c0.4,0,0.7,0.3,0.7,0.7v4.4c0,0.4-0.3,0.9-0.7,0.9
	H8.3L8,16.5h2.5V18h1v-1.5H12V18h1v-1.5C15.7,16.5,17,15.3,17,13.6z"/>
</svg>
