<?xml version="1.0" encoding="utf-8"?>
<!-- Generator: Adobe Illustrator 22.1.0, SVG Export Plug-In . SVG Version: 6.00 Build 0)  -->
<svg version="1.1" id="Layer_1" xmlns="http://www.w3.org/2000/svg" xmlns:xlink="http://www.w3.org/1999/xlink" x="0px" y="0px"
	 viewBox="0 0 64 80" style="enable-background:new 0 0 64 80;" xml:space="preserve">
<style type="text/css">
	.st0{display:none;}
	.st1{display:inline;}
	.st2{fill:none;stroke:#B3B3B3;stroke-width:0.1;stroke-miterlimit:10;}
	.st3{fill:#414142;}
</style>
<g class="st0">
	<g class="st1">
		<rect x="2" y="2" class="st2" width="60" height="60"/>
		<line class="st2" x1="32" y1="2" x2="32" y2="62"/>
		<line class="st2" x1="62" y1="32" x2="2" y2="32"/>
		<line class="st2" x1="2" y1="2" x2="62" y2="62"/>
		<rect x="10" y="10" class="st2" width="44" height="44"/>
		<line class="st2" x1="62" y1="2" x2="2" y2="62"/>
		<line class="st2" x1="2" y1="32" x2="32" y2="2"/>
		<line class="st2" x1="32" y1="2" x2="62" y2="32"/>
		<line class="st2" x1="62" y1="32" x2="32" y2="62"/>
		<line class="st2" x1="32" y1="62" x2="2" y2="32"/>
		<circle class="st2" cx="32" cy="32" r="21"/>
	</g>
</g>
<g>
	<path class="st3" d="M14,10C7.4,10,2,15.4,2,22s5.4,12,12,12s12-5.4,12-12S20.6,10,14,10z M13,16h-2c-0.6,0-1,0.4-1,1v3.2
		c0,0.7-0.2,1.3-0.6,1.8c0.4,0.5,0.6,1.2,0.6,1.8V27c0,0.6,0.4,1,1,1h2v2h-2c-1.7,0-3-1.3-3-3v-3.2C8,23.6,8,23,7.6,23S6,23,6,23v-2
		c0,0,1.2,0,1.6,0S8,20.4,8,20.2V17c0-1.7,1.3-3,3-3h2V16z M22,23c0,0-1.2,0-1.6,0S20,23.6,20,23.8V27c0,1.7-1.3,3-3,3h-2v-2h2
		c0.6,0,1-0.4,1-1v-3.2c0-0.7,0.2-1.3,0.6-1.8c-0.4-0.5-0.6-1.2-0.6-1.8V17c0-0.6-0.4-1-1-1h-2v-2h2c1.7,0,3,1.3,3,3v3.2
		c0,0.3,0,0.8,0.4,0.8s1.6,0,1.6,0V23z"/>
	<path class="st3" d="M50,46c-6.6,0-12,5.4-12,12s5.4,12,12,12s12-5.4,12-12S56.6,46,50,46z M46.8,63.4l-1.7,1.1L40.8,58l4.4-6.6
		l1.7,1.1L43.2,58L46.8,63.4z M50,64.2l-2-0.3l2-12l2,0.3L50,64.2z M54.8,64.6l-1.7-1.1l3.6-5.4l-3.6-5.4l1.7-1.1l4.4,6.6L54.8,64.6
		z"/>
	<path class="st3" d="M36,58c0-7.7,6.3-14,14-14c1.3,0,2.5,0.2,3.6,0.5l3.4-0.7v-7.6l-6.7-1.3c-0.4-1.4-1-2.8-1.7-4.1l3.8-5.7
		L47,19.6l-5.7,3.8c-1.3-0.7-2.7-1.3-4.1-1.7L35.8,15h-7.6l-0.7,3.4c0.3,1.2,0.5,2.4,0.5,3.6c0,7.7-6.3,14-14,14
		c-1.3,0-2.5-0.2-3.6-0.5L7,36.2v7.6l6.7,1.3c0.4,1.4,1,2.8,1.7,4.1L11.6,55l5.4,5.4l5.7-3.8c1.3,0.7,2.7,1.3,4.1,1.7l1.3,6.7h7.6
		l0.7-3.4C36.2,60.5,36,59.3,36,58z M32,47c-3.9,0-7-3.1-7-7s3.1-7,7-7s7,3.1,7,7S35.9,47,32,47z"/>
</g>
</svg>
