<?xml version="1.0" encoding="utf-8"?>
<!-- Generator: Adobe Illustrator 22.1.0, SVG Export Plug-In . SVG Version: 6.00 Build 0)  -->
<svg version="1.1" id="Layer_1" xmlns="http://www.w3.org/2000/svg" xmlns:xlink="http://www.w3.org/1999/xlink" x="0px" y="0px"
	 viewBox="0 0 100 100" style="enable-background:new 0 0 100 100;" xml:space="preserve">
<style type="text/css">
	.st0{fill:#fccd0a;}
</style>
<g>
	<g>
		<path class="st0" d="M29,15c-7.7,0-14,6.3-14,14s6.3,14,14,14s14-6.3,14-14S36.7,15,29,15z M27.8,22h-2.3c-0.7,0-1.2,0.5-1.2,1.2
			v3.7c0,0.8-0.2,1.5-0.7,2.1c0.5,0.6,0.7,1.4,0.7,2.1v3.7c0,0.7,0.5,1.2,1.2,1.2h2.3v2.3h-2.3c-2,0-3.5-1.5-3.5-3.5v-3.7
			c0-0.2,0-0.9-0.5-0.9s-1.9,0-1.9,0v-2.3c0,0,1.4,0,1.9,0s0.5-0.7,0.5-0.9v-3.7c0-2,1.5-3.5,3.5-3.5h2.3V22z M38.3,30.2
			c0,0-1.4,0-1.9,0S36,30.9,36,31.1v3.7c0,2-1.5,3.5-3.5,3.5h-2.3V36h2.3c0.7,0,1.2-0.5,1.2-1.2v-3.7c0-0.8,0.2-1.5,0.7-2.1
			c-0.5-0.6-0.7-1.4-0.7-2.1v-3.7c0-0.7-0.5-1.2-1.2-1.2h-2.3v-2.3h2.3c2,0,3.5,1.5,3.5,3.5v3.7c0,0.4,0,0.9,0.5,0.9s1.9,0,1.9,0
			V30.2z"/>
		<path class="st0" d="M71,57c-7.7,0-14,6.3-14,14s6.3,14,14,14s14-6.3,14-14S78.7,57,71,57z M67.3,77.3l-2,1.3l-5-7.6l5.1-7.7
			l2,1.3L63.1,71L67.3,77.3z M71,78.2l-2.3-0.4l2.3-14l2.3,0.4L71,78.2z M76.6,78.7l-2-1.3l4.2-6.3l-4.2-6.3l2-1.3l5.1,7.7
			L76.6,78.7z"/>
		<path class="st0" d="M54.7,71c0-9,7.3-16.3,16.3-16.3c1.5,0,2.9,0.2,4.2,0.6l4-0.8v-8.9L71.3,44c-0.5-1.6-1.2-3.3-2-4.8l4.4-6.7
			l-6.3-6.4l-6.7,4.4c-1.5-0.8-3.2-1.5-4.8-2l-1.6-7.8h-8.9l-0.8,4c0.4,1.4,0.6,2.8,0.6,4.2c0,9-7.4,16.3-16.3,16.3
			c-1.5,0-2.9-0.2-4.2-0.6l-4,0.8v8.9l7.8,1.5c0.5,1.6,1.2,3.3,2,4.8l-4.4,6.8l6.3,6.3l6.7-4.4c1.5,0.8,3.2,1.5,4.8,2l1.5,7.8h8.9
			l0.8-4C54.9,73.9,54.7,72.5,54.7,71z M50,58.2c-4.5,0-8.2-3.6-8.2-8.2s3.6-8.2,8.2-8.2s8.2,3.6,8.2,8.2S54.6,58.2,50,58.2z"/>
	</g>
	<g>
		<path class="st0" d="M29,15c-7.7,0-14,6.3-14,14s6.3,14,14,14s14-6.3,14-14S36.7,15,29,15z M27.8,22h-2.3c-0.7,0-1.2,0.5-1.2,1.2
			v3.7c0,0.8-0.2,1.5-0.7,2.1c0.5,0.6,0.7,1.4,0.7,2.1v3.7c0,0.7,0.5,1.2,1.2,1.2h2.3v2.3h-2.3c-2,0-3.5-1.5-3.5-3.5v-3.7
			c0-0.2,0-0.9-0.5-0.9s-1.9,0-1.9,0v-2.3c0,0,1.4,0,1.9,0s0.5-0.7,0.5-0.9v-3.7c0-2,1.5-3.5,3.5-3.5h2.3V22z M38.3,30.2
			c0,0-1.4,0-1.9,0S36,30.9,36,31.1v3.7c0,2-1.5,3.5-3.5,3.5h-2.3V36h2.3c0.7,0,1.2-0.5,1.2-1.2v-3.7c0-0.8,0.2-1.5,0.7-2.1
			c-0.5-0.6-0.7-1.4-0.7-2.1v-3.7c0-0.7-0.5-1.2-1.2-1.2h-2.3v-2.3h2.3c2,0,3.5,1.5,3.5,3.5v3.7c0,0.4,0,0.9,0.5,0.9s1.9,0,1.9,0
			V30.2z"/>
		<path class="st0" d="M71,57c-7.7,0-14,6.3-14,14s6.3,14,14,14s14-6.3,14-14S78.7,57,71,57z M67.3,77.3l-2,1.3l-5-7.6l5.1-7.7
			l2,1.3L63.1,71L67.3,77.3z M71,78.2l-2.3-0.4l2.3-14l2.3,0.4L71,78.2z M76.6,78.7l-2-1.3l4.2-6.3l-4.2-6.3l2-1.3l5.1,7.7
			L76.6,78.7z"/>
		<path class="st0" d="M54.7,71c0-9,7.3-16.3,16.3-16.3c1.5,0,2.9,0.2,4.2,0.6l4-0.8v-8.9L71.3,44c-0.5-1.6-1.2-3.3-2-4.8l4.4-6.7
			l-6.3-6.4l-6.7,4.4c-1.5-0.8-3.2-1.5-4.8-2l-1.6-7.8h-8.9l-0.8,4c0.4,1.4,0.6,2.8,0.6,4.2c0,9-7.4,16.3-16.3,16.3
			c-1.5,0-2.9-0.2-4.2-0.6l-4,0.8v8.9l7.8,1.5c0.5,1.6,1.2,3.3,2,4.8l-4.4,6.8l6.3,6.3l6.7-4.4c1.5,0.8,3.2,1.5,4.8,2l1.5,7.8h8.9
			l0.8-4C54.9,73.9,54.7,72.5,54.7,71z M50,58.2c-4.5,0-8.2-3.6-8.2-8.2s3.6-8.2,8.2-8.2s8.2,3.6,8.2,8.2S54.6,58.2,50,58.2z"/>
	</g>
</g>
</svg>
