<?xml version="1.0" encoding="utf-8"?>
<!-- Generator: Adobe Illustrator 22.1.0, SVG Export Plug-In . SVG Version: 6.00 Build 0)  -->
<svg version="1.1" id="Layer_1" xmlns="http://www.w3.org/2000/svg" xmlns:xlink="http://www.w3.org/1999/xlink" x="0px" y="0px"
	 viewBox="0 0 100 100" style="enable-background:new 0 0 100 100;" xml:space="preserve">
<style type="text/css">
	.st0{fill:#ffcd0a;}
	.st1{fill:#414142;}
	.st2{font-family:'Calibri';}
	.st3{font-size:29.9851px;}
</style>
<path class="st0" d="M81.9,76H18.1c-1.7,0-3.1-1.4-3.1-3.1V27.1c0-1.7,1.4-3.1,3.1-3.1h63.8c1.7,0,3.1,1.4,3.1,3.1v45.8
	C85,74.6,83.6,76,81.9,76z"/>
<path class="st1" d="M77.5,36h-55c-1.1,0-2-0.9-2-2v0c0-1.1,0.9-2,2-2h55c1.1,0,2,0.9,2,2v0C79.5,35.1,78.6,36,77.5,36z"/>
<circle class="st1" cx="82" cy="34" r="1"/>
<text transform="matrix(1 0 0 1 21.9927 63.7676)" class="st1 st2 st3">&lt; / &gt;</text>
</svg>
