<?xml version="1.0" encoding="utf-8"?>
<!-- Generator: Adobe Illustrator 22.1.0, SVG Export Plug-In . SVG Version: 6.00 Build 0)  -->
<svg version="1.1" id="Layer_1" xmlns="http://www.w3.org/2000/svg" xmlns:xlink="http://www.w3.org/1999/xlink" x="0px" y="0px"
	 viewBox="0 0 100 100" style="enable-background:new 0 0 100 100;" xml:space="preserve">
<style type="text/css">
	.st0{display:none;}
	.st1{display:inline;}
	.st2{fill:#414142;}
	.st3{display:inline;fill:#414142;}
	.st4{display:none;fill:#414142;}
</style>
<g class="st0">
	<g class="st1">
		<path class="st2" d="M48.4,41.7v-5.9h29.2c-0.2,1.8-0.5,3.6-1,5.3c-0.1,0.2-0.1,0.4-0.2,0.5H48.4z M38.9,27.3
			c3.9,1,6.6,4.5,6.6,8.5v5.9c0,4-2.7,7.5-6.6,8.5c2.3-2.2,3.7-5.3,3.7-8.5v-5.9C42.5,32.6,41.2,29.5,38.9,27.3z M37.8,24.2
			c0.8-0.9,1.3-1.5,1.3-1.5c0.3-0.3,0.4-0.6,0.4-1v-2.8c6.4-4.2,14.2-5.8,21.8-4.6c7.7,1.2,13.9,6.9,15.6,14.5l0,0
			c0,0.1,0,0.2,0.1,0.3c0.1,0.2,0.1,0.5,0.2,0.7c0.2,1,0.3,2.1,0.3,3.1H48C46.8,28.1,42.7,24.7,37.8,24.2z M80.5,35.8H85v5.9h-5.5
			C80,39.8,80.4,37.8,80.5,35.8z M80.6,32.9c0-1-0.1-2-0.3-2.9h1.8c1.6,0,2.9,1.3,2.9,2.9H80.6z M39.5,12.6c4-1.8,14.7-6,26.3-4.2
			C75.1,9.8,81.4,17.2,82,27h-2.4c-2.3-8.2-9.2-14.4-17.7-15.6C54,10,45.9,11.6,39,15.7l-0.2-0.7v0l0,0l-0.2-0.7
			C38.5,13.6,38.8,12.9,39.5,12.6L39.5,12.6z M35.8,17.3c0.2-0.1,0.3-0.1,0.5-0.2l0.3,1.3v2.6c-0.5,0.6-1.5,1.7-2.5,3h-1.9
			c-0.1,0-0.2,0-0.3,0.1c-0.4,0-0.8-0.1-1.2-0.1h-3.7C29,20.8,32.2,18.4,35.8,17.3z M14.7,49V28.5c0-0.8,0.7-1.5,1.5-1.5h1.5v23.4
			h-1.5C15.4,50.5,14.7,49.8,14.7,49z M20.6,27h4.4l0,0l0,0h5.9c4.9,0,8.8,3.9,8.8,8.8v5.9c0,4.9-3.9,8.8-8.8,8.8H20.6V27z
			 M76.3,75.8c2.2,1.6,7.9,6.4,8.6,14.2H41.1c2-2.1,4.1-4,6.4-5.9C65.4,84,73.7,78.1,76.3,75.8z M71.3,50.8c-2.5,4-3.5,8.8-2.7,13.5
			c0.3,2.2,1,4.2,2.1,6.1c0.8,1.2,1.8,2.3,3,3.2c0.1,0.1,0.3,0.2,0.4,0.3c-2.5,2.1-10.1,7-25.8,7.3c-0.7-4.8-4.2-12.1-7.1-15.8
			l4.7-1.2c0.8-0.2,1.3-1,1.1-1.8c-0.2-0.8-1-1.3-1.8-1.1l-7.1,1.8l0,0l-0.3,0.1c-1.5,0.5-3.2,0.4-4.6-0.3c-1.4-0.7-2.2-2.1-2.2-3.6
			v-6c0.4,0,0.7,0,1.1-0.1c0.1,0,0.2,0.1,0.3,0.1h4.4c5.3,0,10-3.6,11.3-8.8h27.1c-0.6,1.2-1.4,2.4-2.2,3.5
			c-0.2,0.4-0.5,0.7-0.7,1.1C71.9,49.7,71.6,50.3,71.3,50.8z M82.1,47.5h-5.2c0.6-0.9,1.1-1.9,1.6-2.9H85
			C85,46.2,83.7,47.5,82.1,47.5z"/>
	</g>
</g>
<g class="st0">
	<path class="st3" d="M42.9,25.4c0-5.8-4.6-10.4-10.4-10.4s-10.8,4.6-10.8,10.4s4.6,10.4,10.4,10.4S42.9,31.2,42.9,25.4z M32.1,28.8
		c-1.9,0-3.5-1.5-3.5-3.5s1.5-3.5,3.5-3.5s3.5,1.5,3.5,3.5C36,27.3,34,28.8,32.1,28.8z"/>
	<path class="st3" d="M77.9,25.4c0-5.8-4.6-10.4-10.4-10.4s-10.4,4.6-10.4,10.4s4.6,10.4,10.4,10.4C73.3,35.8,77.9,31.2,77.9,25.4z
		 M67.5,28.8c-1.9,0-3.5-1.5-3.5-3.5s1.5-3.5,3.5-3.5c1.9,0,3.5,1.5,3.5,3.5S69.4,28.8,67.5,28.8z"/>
	<path class="st3" d="M81.3,50v-6.9c0-3.8-3.1-6.9-6.9-6.9h-6.9h-6.9c-3.8,0-6.9,3.1-6.9,6.9V50h-7.3v-6.9c0-3.8-3.1-6.9-6.9-6.9
		h-7.3h-6.9c-3.8,0-6.9,3.1-6.9,6.9V50h-3.5v6.9c29.2,0,36.2,0,70.4,0V50H81.3z M25.2,50v-6.9h14.2V50H25.2z M60.2,50v-6.9h14.2V50
		H60.2z"/>
	<path class="st3" d="M39.4,71.2c0-5.8-4.6-10.4-10.4-10.4s-10.8,4.6-10.8,10.4c0,2.7,1.2,5,2.7,6.9h-6.2V85h28.1v-6.9h-6.2
		C38.3,76.2,39.4,73.8,39.4,71.2z M28.7,67.7c1.9,0,3.5,1.5,3.5,3.5c0,1.9-1.5,3.5-3.5,3.5s-3.5-1.5-3.5-3.5
		C25.2,69.2,26.7,67.7,28.7,67.7z"/>
	<path class="st3" d="M81.3,71.2c0-5.8-4.6-10.4-10.4-10.4s-10.4,4.6-10.4,10.4c0,2.7,1.2,5,2.7,6.9h-6.2V85h28.1v-6.9H79
		C80.2,76.2,81.3,73.8,81.3,71.2z M71,67.7c1.9,0,3.5,1.5,3.5,3.5c0,1.9-1.5,3.5-3.5,3.5c-1.9,0-3.5-1.5-3.5-3.5
		C67.5,69.2,69,67.7,71,67.7z"/>
</g>
<path class="st4" d="M48.5,48.5v-7.3c5.1,0,8.1,0.7,8.1,3.6C56.7,48.3,51.8,48.5,48.5,48.5z M48.5,51.4v7.3c5.8,0,9.8-0.5,9.8-3.7
	C58.3,51.7,54,51.4,48.5,51.4z M85,50c0,19.3-15.7,35-35,35S15,69.3,15,50s15.7-35,35-35S85,30.7,85,50z M64.6,54.6
	c0-3.7-3-5.3-5.2-5.9c1.8-0.7,3.9-3.3,3.1-6.5c-0.7-2.7-3.2-5.1-9.5-5.3v-4.5H50v4.4h-1.5v-4.4h-2.9v4.4h-7.3v4.4h2.4
	c1.3,0,2,0.8,2,2v13c0,1.3-0.7,2.5-2,2.5h-1.6l-0.7,4.3h7.2v4.4h2.9v-4.4H50v4.4h2.9v-4.4C60.7,63.1,64.6,59.7,64.6,54.6z"/>
<g>
	<path class="st2" d="M15,66c0,5.4,4.5,9.8,9.9,9.8c2.6,0,5.1-1,6.9-2.9l17,7.7c1.9,5.1,7.5,7.6,12.6,5.7s7.6-7.5,5.7-12.6l0,0
		l7.5-11h0.7c5.4-0.1,9.8-4.6,9.6-10c-0.1-4.7-3.5-8.7-8.1-9.5L70.2,29c3.4-4.3,2.7-10.5-1.6-13.8s-10.5-2.7-13.8,1.6
		c-1,1.2-1.7,2.7-2,4.3l-19.6,2.7c-2.9-4.6-8.9-6-13.6-3.2s-6,8.9-3.2,13.6c1.4,2.3,3.7,3.9,6.3,4.4l-0.1,17.9
		C18.2,57.4,15,61.4,15,66z M57.8,66.6c-1.8,0-3.5,0.5-5,1.4l-9.5-16.6l14.7-19.7l0.7,0.4l-0.1,34.6L57.8,66.6z M53.6,27.4
		L39.9,45.8l-6.6-11.6c0.9-1.4,1.4-3,1.5-4.7L53.4,27L53.6,27.4z M36,51l-5.4,7.2c-0.6-0.5-1.3-0.9-2-1.2l0.1-18.6L36,51z
		 M24.9,69.9c-2.1,0-3.9-1.7-3.9-3.9c0-2.1,1.7-3.9,3.9-3.9s3.9,1.7,3.9,3.9l0,0C28.7,68.1,27,69.9,24.9,69.9z M34.3,63.3l5-6.7
		l9.3,16.3l-0.3,1l-13.8-6.2C34.7,66.2,34.7,64.7,34.3,63.3L34.3,63.3z M57.8,80.3c-2.1,0-3.9-1.7-3.9-3.9c0-2.1,1.7-3.9,3.9-3.9
		c2.1,0,3.9,1.7,3.9,3.9l0,0C61.6,78.6,59.9,80.3,57.8,80.3z M64.5,67.1l0.1-34.5l0.4-0.1l5.6,11.9c-4.8,2.5-6.6,8.4-4.1,13.2
		c0.6,1.1,1.4,2.1,2.3,2.9L64.5,67.1z M79.2,52.9c0,2.1-1.7,3.9-3.9,3.9c-2.1,0-3.9-1.7-3.9-3.9s1.7-3.9,3.9-3.9l0,0
		C77.4,49.1,79.2,50.8,79.2,52.9z M62.5,19.1c2.1,0,3.9,1.7,3.9,3.9s-1.7,3.9-3.9,3.9c-2.1,0-3.9-1.7-3.9-3.9S60.3,19.1,62.5,19.1
		L62.5,19.1z M21.1,29c0-2.1,1.7-3.9,3.9-3.9s3.9,1.7,3.9,3.9s-1.7,3.9-3.9,3.9S21.1,31.1,21.1,29C21.1,29,21.1,29,21.1,29z"/>
</g>
</svg>
