<?xml version="1.0" encoding="utf-8"?>
<!-- Generator: Adobe Illustrator 22.1.0, SVG Export Plug-In . SVG Version: 6.00 Build 0)  -->
<svg version="1.1" id="Layer_1" xmlns="http://www.w3.org/2000/svg" xmlns:xlink="http://www.w3.org/1999/xlink" x="0px" y="0px"
	 viewBox="0 0 100 125" style="enable-background:new 0 0 100 125;" xml:space="preserve">
<style type="text/css">
	.st0{fill:#414142;}
</style>
<title>27</title>
<g>
	<path class="st0" d="M3.1,83.9c0,7.3,6,13.2,13.3,13.1c3.5,0,6.8-1.4,9.2-3.8l22.8,10.3c2.5,6.8,10.1,10.2,16.9,7.7
		c6.8-2.5,10.2-10.1,7.7-16.9l0,0l10-14.8h1c7.3-0.2,13.1-6.2,12.9-13.5c-0.1-6.3-4.7-11.6-10.9-12.7l-8.9-19
		c4.5-5.7,3.6-14-2.1-18.5s-14-3.6-18.5,2.1c-1.3,1.7-2.2,3.6-2.6,5.7l-26.3,3.6c-3.9-6.2-12-8.1-18.2-4.2S1.2,35,5.1,41.2
		c1.9,3.1,5,5.2,8.5,5.9l-0.2,24C7.4,72.5,3.1,77.8,3.1,83.9z M60.4,84.7c-2.4,0-4.7,0.7-6.7,1.9L40.9,64.4L60.6,38l1,0.5l-0.2,46.4
		L60.4,84.7z M54.9,32.2L36.5,56.8l-8.9-15.5c1.2-1.9,1.9-4.1,2-6.3l25-3.4L54.9,32.2z M31.3,63.8l-7.2,9.6
		c-0.8-0.6-1.7-1.2-2.7-1.6l0.2-24.9L31.3,63.8z M16.3,89.1c-2.9,0-5.2-2.3-5.2-5.2c0-2.9,2.3-5.2,5.2-5.2s5.2,2.3,5.2,5.2l0,0
		C21.5,86.8,19.2,89.1,16.3,89.1z M29,80.3l6.7-9l12.4,21.8l-0.4,1.3l-18.5-8.3c0.4-1.9,0.3-3.9-0.3-5.8H29z M60.4,103.1
		c-2.9,0-5.2-2.3-5.2-5.2c0-2.9,2.3-5.2,5.2-5.2c2.9,0,5.2,2.3,5.2,5.2l0,0C65.6,100.8,63.3,103.1,60.4,103.1z M69.5,85.4l0.2-46.3
		l0.6-0.2l7.5,15.9c-6.4,3.4-8.8,11.3-5.4,17.7c0.8,1.5,1.9,2.8,3.1,3.9L69.5,85.4z M89.1,66.4c0,2.9-2.3,5.2-5.2,5.2
		c-2.9,0-5.2-2.3-5.2-5.2s2.3-5.2,5.2-5.2l0,0C86.8,61.2,89.1,63.6,89.1,66.4z M66.7,21.1c2.9,0,5.2,2.3,5.2,5.2s-2.3,5.2-5.2,5.2
		s-5.2-2.3-5.2-5.2S63.8,21.1,66.7,21.1L66.7,21.1z M11.3,34.3c0-2.9,2.3-5.2,5.2-5.2s5.2,2.3,5.2,5.2c0,2.9-2.3,5.2-5.2,5.2
		S11.3,37.2,11.3,34.3C11.3,34.3,11.3,34.3,11.3,34.3z"/>
</g>
</svg>
