<?xml version="1.0" encoding="utf-8"?>
<!-- Generator: Adobe Illustrator 22.1.0, SVG Export Plug-In . SVG Version: 6.00 Build 0)  -->
<svg version="1.1" id="Layer_1" xmlns="http://www.w3.org/2000/svg" xmlns:xlink="http://www.w3.org/1999/xlink" x="0px" y="0px"
	 viewBox="0 0 48 70" style="enable-background:new 0 0 48 70;" xml:space="preserve">
<style type="text/css">
	.st0{fill:#414142;}
</style>
<title>006 - Helmet</title>
<desc>Created with Sketch.</desc>
<g>
	<g>
		<path class="st0" d="M23,30v-4h19.9c-0.1,1.2-0.3,2.4-0.7,3.6c0,0.1-0.1,0.2-0.1,0.4H23z M16.5,20.2c2.7,0.7,4.5,3.1,4.5,5.8v4
			c0,2.7-1.9,5.1-4.5,5.8c1.6-1.5,2.5-3.6,2.5-5.8v-4C19,23.8,18.1,21.7,16.5,20.2z M15.8,18c0.5-0.6,0.9-1,0.9-1
			c0.2-0.2,0.3-0.4,0.3-0.7v-1.9c4.4-2.9,9.7-4,14.9-3.1c5.3,0.8,9.5,4.7,10.7,9.9l0,0c0,0.1,0,0.1,0,0.2c0,0.2,0.1,0.3,0.1,0.5
			c0.1,0.7,0.2,1.4,0.2,2.1H22.7C21.9,20.8,19.1,18.4,15.8,18z M44.9,26H48v4h-3.8C44.6,28.7,44.8,27.4,44.9,26z M45,24
			c0-0.7-0.1-1.3-0.2-2H46c1.1,0,2,0.9,2,2H45z M16.9,10.2c2.8-1.3,10-4.1,17.9-2.9c6.4,0.9,10.7,6,11.1,12.7h-1.7
			c-1.6-5.6-6.3-9.8-12.1-10.7c-5.4-0.9-10.9,0.1-15.6,3l-0.1-0.5v0l0,0l-0.1-0.5C16.2,10.9,16.5,10.4,16.9,10.2L16.9,10.2z
			 M14.4,13.4c0.1,0,0.2-0.1,0.4-0.1l0.2,0.9v1.8c-0.4,0.4-1,1.1-1.7,2.1H12c-0.1,0-0.1,0-0.2,0c-0.3,0-0.5,0-0.8,0H8.5
			C9.8,15.7,11.9,14.1,14.4,13.4z M0,35V21c0-0.6,0.4-1,1-1h1v16H1C0.4,36,0,35.5,0,35z M4,20h3l0,0l0,0h4c3.3,0,6,2.7,6,6v4
			c0,3.3-2.7,6-6,6H4V20z M42.1,53.3c1.5,1.1,5.4,4.3,5.9,9.7H18c1.4-1.4,2.8-2.8,4.4-4C34.6,58.9,40.3,54.9,42.1,53.3z M38.6,36.2
			c-1.7,2.7-2.4,6-1.9,9.2c0.2,1.5,0.7,2.9,1.4,4.2c0.6,0.8,1.3,1.6,2.1,2.2c0.1,0.1,0.2,0.2,0.3,0.2c-1.7,1.4-6.9,4.8-17.6,5
			c-0.5-3.3-2.9-8.2-4.8-10.8l3.2-0.8c0.5-0.1,0.9-0.7,0.7-1.2s-0.7-0.9-1.2-0.7L16,44.7l0,0l-0.2,0.1c-1,0.4-2.2,0.3-3.2-0.2
			c-0.9-0.5-1.5-1.4-1.5-2.5V38c0.2,0,0.5,0,0.7,0c0.1,0,0.1,0,0.2,0h3c3.6,0,6.8-2.5,7.7-6h18.5c-0.4,0.8-0.9,1.6-1.5,2.4
			c-0.2,0.2-0.3,0.5-0.5,0.7C39.1,35.5,38.8,35.9,38.6,36.2z M46,34h-3.6c0.4-0.6,0.8-1.3,1.1-2H48C48,33.1,47.1,34,46,34z"/>
	</g>
</g>
</svg>
