<?xml version="1.0" encoding="utf-8"?>
<!-- Generator: Adobe Illustrator 22.1.0, SVG Export Plug-In . SVG Version: 6.00 Build 0)  -->
<svg version="1.1" id="Layer_1" xmlns="http://www.w3.org/2000/svg" xmlns:xlink="http://www.w3.org/1999/xlink" x="0px" y="0px"
	 viewBox="0 0 100 100" style="enable-background:new 0 0 100 100;" xml:space="preserve">
<style type="text/css">
	.st0{fill:#fccd0a;}
</style>
<g>
	<g>
		<path class="st0" d="M48.4,41.7v-5.9h29.2c-0.2,1.8-0.5,3.6-1,5.3c-0.1,0.2-0.1,0.4-0.2,0.5H48.4z M38.9,27.3
			c3.9,1,6.6,4.5,6.6,8.5v5.9c0,4-2.7,7.5-6.6,8.5c2.3-2.2,3.7-5.3,3.7-8.5v-5.9C42.5,32.6,41.2,29.5,38.9,27.3z M37.8,24.2
			c0.8-0.9,1.3-1.5,1.3-1.5c0.3-0.3,0.4-0.6,0.4-1v-2.8c6.4-4.2,14.2-5.8,21.8-4.6c7.7,1.2,13.9,6.9,15.6,14.5l0,0
			c0,0.1,0,0.2,0.1,0.3c0.1,0.2,0.1,0.5,0.2,0.7c0.2,1,0.3,2.1,0.3,3.1H48C46.8,28.1,42.7,24.7,37.8,24.2z M80.5,35.8H85v5.9h-5.5
			C80,39.8,80.4,37.8,80.5,35.8z M80.6,32.9c0-1-0.1-2-0.3-2.9h1.8c1.6,0,2.9,1.3,2.9,2.9H80.6z M39.5,12.6c4-1.8,14.7-6,26.3-4.2
			C75.1,9.8,81.4,17.2,82,27h-2.4c-2.3-8.2-9.2-14.4-17.7-15.6C54,10,45.9,11.6,39,15.7l-0.2-0.7v0l0,0l-0.2-0.7
			C38.5,13.6,38.8,12.9,39.5,12.6L39.5,12.6z M35.8,17.3c0.2-0.1,0.3-0.1,0.5-0.2l0.3,1.3v2.6c-0.5,0.6-1.5,1.7-2.5,3h-1.9
			c-0.1,0-0.2,0-0.3,0.1c-0.4,0-0.8-0.1-1.2-0.1h-3.7C29,20.8,32.2,18.4,35.8,17.3z M14.7,49V28.5c0-0.8,0.7-1.5,1.5-1.5h1.5v23.4
			h-1.5C15.4,50.5,14.7,49.8,14.7,49z M20.6,27h4.4l0,0l0,0h5.9c4.9,0,8.8,3.9,8.8,8.8v5.9c0,4.9-3.9,8.8-8.8,8.8H20.6V27z
			 M76.3,75.8c2.2,1.6,7.9,6.4,8.6,14.2H41.1c2-2.1,4.1-4,6.4-5.9C65.4,84,73.7,78.1,76.3,75.8z M71.3,50.8c-2.5,4-3.5,8.8-2.7,13.5
			c0.3,2.2,1,4.2,2.1,6.1c0.8,1.2,1.8,2.3,3,3.2c0.1,0.1,0.3,0.2,0.4,0.3c-2.5,2.1-10.1,7-25.8,7.3c-0.7-4.8-4.2-12.1-7.1-15.8
			l4.7-1.2c0.8-0.2,1.3-1,1.1-1.8c-0.2-0.8-1-1.3-1.8-1.1l-7.1,1.8l0,0l-0.3,0.1c-1.5,0.5-3.2,0.4-4.6-0.3c-1.4-0.7-2.2-2.1-2.2-3.6
			v-6c0.4,0,0.7,0,1.1-0.1c0.1,0,0.2,0.1,0.3,0.1h4.4c5.3,0,10-3.6,11.3-8.8h27.1c-0.6,1.2-1.4,2.4-2.2,3.5
			c-0.2,0.4-0.5,0.7-0.7,1.1C71.9,49.7,71.6,50.3,71.3,50.8z M82.1,47.5h-5.2c0.6-0.9,1.1-1.9,1.6-2.9H85
			C85,46.2,83.7,47.5,82.1,47.5z"/>
	</g>
</g>
</svg>
